# MagicaVoxel @ Ephtracy

# group
g Nave_do_Heroi

# material
mtllib Nave_do_Heroi.mtl
usemtl palette

# normals
vn -1 0 0
vn 1 0 0
vn 0 0 1
vn 0 0 -1
vn 0 -1 0
vn 0 1 0

# texcoords
vt 0.00195313 0.5
vt 0.146484 0.5
vt 0.306641 0.5
vt 0.427734 0.5
vt 0.689453 0.5
vt 0.724609 0.5
vt 0.912109 0.5
vt 0.982422 0.5
vt 0.994141 0.5

# verts
v -11 3 -1
v -11 3 -7
v -11 3 -8
v -11 6 -1
v -11 6 -6
v -11 7 -6
v -11 7 -7
v -11 7 -8
v -9 4 2
v -9 4 -1
v -9 4 -8
v -9 4 -10
v -9 4 -11
v -9 5 2
v -9 5 -1
v -9 5 -8
v -9 6 -8
v -9 6 -10
v -9 6 -11
v -6 3 -0
v -6 3 -1
v -6 5 -1
v -6 6 -1
v -6 6 -6
v -6 7 -0
v -6 7 -6
v -5 3 2
v -5 3 -0
v -5 6 2
v -5 6 -0
v -3 3 7
v -3 3 6
v -3 3 5
v -3 3 3
v -3 3 2
v -3 6 7
v -3 6 6
v -3 6 5
v -3 6 3
v -3 6 2
v -2 3 8
v -2 3 7
v -2 6 8
v -2 6 7
v -2 6 1
v -2 6 -0
v -2 7 1
v -2 7 -0
v -1 3 13
v -1 3 11
v -1 3 9
v -1 3 8
v -1 6 13
v -1 6 11
v -1 6 9
v -1 6 8
v -1 6 7
v -1 6 6
v -1 6 5
v -1 6 3
v -1 6 1
v -1 7 7
v -1 7 6
v -1 7 5
v -1 7 1
v 0 3 14
v 0 3 13
v 0 4 15
v 0 4 14
v 0 5 15
v 0 5 14
v 0 6 14
v 0 6 13
v 0 6 12
v 0 6 11
v 0 6 9
v 0 6 7
v 0 6 -2
v 0 6 -5
v 0 7 12
v 0 7 11
v 0 7 9
v 0 7 7
v 0 7 4
v 0 7 1
v 0 7 -2
v 0 7 -5
v 0 8 4
v 0 8 -2
v 2 3 12
v 2 3 11
v 2 3 9
v 2 3 7
v 2 3 6
v 2 3 5
v 2 4 12
v 2 4 11
v 2 4 9
v 2 4 7
v 2 4 6
v 2 4 5
v 3 3 5
v 3 3 3
v 3 3 2
v 3 3 -2
v 3 3 -5
v 3 3 -6
v 3 4 5
v 3 4 3
v 3 4 2
v 3 4 -2
v 3 4 -5
v 3 4 -6
v 3 5 -5
v 3 5 -6
v 3 6 -5
v 3 6 -6
v 5 3 -6
v 5 3 -7
v 5 3 -8
v 5 4 -6
v 5 5 -6
v 5 6 -2
v 5 6 -5
v 5 6 -6
v 5 6 -7
v 5 6 -8
v 5 7 -2
v 5 7 -5
v 6 6 -5
v 6 6 -7
v 6 6 -8
v 6 7 -5
v 6 7 -7
v 6 7 -8
v 7 4 -8
v 7 4 -10
v 7 4 -11
v 7 6 -8
v 7 6 -10
v 7 6 -11
v 9 4 2
v 9 4 -1
v 9 5 2
v 9 5 -1
v -7 4 2
v -7 4 -1
v -7 5 2
v -7 5 -1
v -5 4 -8
v -5 4 -10
v -5 4 -11
v -5 6 -8
v -5 6 -10
v -5 6 -11
v -4 6 -5
v -4 6 -7
v -4 6 -8
v -4 7 -5
v -4 7 -7
v -4 7 -8
v -3 3 -6
v -3 3 -7
v -3 3 -8
v -3 4 -6
v -3 5 -6
v -3 6 -2
v -3 6 -5
v -3 6 -6
v -3 6 -7
v -3 6 -8
v -3 7 -2
v -3 7 -5
v -1 3 5
v -1 3 3
v -1 3 2
v -1 3 -2
v -1 3 -5
v -1 3 -6
v -1 4 5
v -1 4 3
v -1 4 2
v -1 4 -2
v -1 4 -5
v -1 4 -6
v -1 5 -5
v -1 5 -6
v -1 6 -5
v -1 6 -6
v 0 3 12
v 0 3 11
v 0 3 9
v 0 3 7
v 0 3 6
v 0 3 5
v 0 4 12
v 0 4 11
v 0 4 9
v 0 4 7
v 0 4 6
v 0 4 5
v 2 3 14
v 2 3 13
v 2 4 15
v 2 4 14
v 2 5 15
v 2 5 14
v 2 6 14
v 2 6 13
v 2 6 12
v 2 6 11
v 2 6 9
v 2 6 7
v 2 6 -2
v 2 6 -5
v 2 7 12
v 2 7 11
v 2 7 9
v 2 7 7
v 2 7 4
v 2 7 1
v 2 7 -2
v 2 7 -5
v 2 8 4
v 2 8 -2
v 3 3 13
v 3 3 11
v 3 3 9
v 3 3 8
v 3 6 13
v 3 6 11
v 3 6 9
v 3 6 8
v 3 6 7
v 3 6 6
v 3 6 5
v 3 6 3
v 3 6 1
v 3 7 7
v 3 7 6
v 3 7 5
v 3 7 1
v 4 3 8
v 4 3 7
v 4 6 8
v 4 6 7
v 4 6 1
v 4 6 -0
v 4 7 1
v 4 7 -0
v 5 3 7
v 5 3 6
v 5 3 5
v 5 3 3
v 5 3 2
v 5 6 7
v 5 6 6
v 5 6 5
v 5 6 3
v 5 6 2
v 7 3 2
v 7 3 -0
v 7 6 2
v 7 6 -0
v 8 3 -0
v 8 3 -1
v 8 5 -1
v 8 6 -1
v 8 6 -6
v 8 7 -0
v 8 7 -6
v 11 4 2
v 11 4 -1
v 11 4 -8
v 11 4 -10
v 11 4 -11
v 11 5 2
v 11 5 -1
v 11 6 -8
v 11 6 -10
v 11 6 -11
v 13 3 -1
v 13 3 -7
v 13 3 -8
v 13 6 -1
v 13 6 -6
v 13 7 -6
v 13 7 -7
v 13 7 -8
v 0 4 15
v 0 5 15
v 2 4 15
v 2 5 15
v 0 3 14
v 0 4 14
v 0 5 14
v 0 6 14
v 2 3 14
v 2 4 14
v 2 5 14
v 2 6 14
v -1 3 13
v -1 6 13
v 0 3 13
v 0 6 13
v 2 3 13
v 2 6 13
v 3 3 13
v 3 6 13
v 0 6 12
v 0 7 12
v 2 6 12
v 2 7 12
v -2 3 8
v -2 6 8
v -1 3 8
v -1 6 8
v 3 3 8
v 3 6 8
v 4 3 8
v 4 6 8
v -3 3 7
v -3 6 7
v -2 3 7
v -2 6 7
v -1 6 7
v -1 7 7
v 0 6 7
v 0 7 7
v 2 6 7
v 2 7 7
v 3 6 7
v 3 7 7
v 4 3 7
v 4 6 7
v 5 3 7
v 5 6 7
v 0 7 4
v 0 8 4
v 2 7 4
v 2 8 4
v -9 4 2
v -9 5 2
v -7 4 2
v -7 5 2
v -5 3 2
v -5 6 2
v -3 3 2
v -3 6 2
v 5 3 2
v 5 6 2
v 7 3 2
v 7 6 2
v 9 4 2
v 9 5 2
v 11 4 2
v 11 5 2
v -2 6 1
v -2 7 1
v -1 6 1
v -1 7 1
v 3 6 1
v 3 7 1
v 4 6 1
v 4 7 1
v -6 3 -0
v -6 7 -0
v -5 3 -0
v -5 6 -0
v -3 6 -0
v -2 6 -0
v -2 7 -0
v 4 6 -0
v 4 7 -0
v 5 6 -0
v 7 3 -0
v 7 6 -0
v 8 3 -0
v 8 7 -0
v -11 3 -1
v -11 6 -1
v -10 5 -1
v -10 6 -1
v -9 4 -1
v -9 5 -1
v -8 5 -1
v -8 6 -1
v -7 4 -1
v -7 5 -1
v -7 6 -1
v -6 3 -1
v -6 5 -1
v -6 6 -1
v 8 3 -1
v 8 5 -1
v 8 6 -1
v 9 4 -1
v 9 5 -1
v 9 6 -1
v 10 5 -1
v 10 6 -1
v 11 4 -1
v 11 5 -1
v 12 5 -1
v 12 6 -1
v 13 3 -1
v 13 6 -1
v -1 3 -2
v -1 4 -2
v 3 3 -2
v 3 4 -2
v -11 6 -6
v -11 7 -6
v -10 6 -6
v -8 6 -6
v -7 6 -6
v -6 6 -6
v -6 7 -6
v 8 6 -6
v 8 7 -6
v 9 6 -6
v 10 6 -6
v 12 6 -6
v 13 6 -6
v 13 7 -6
v 0 3 12
v 0 4 12
v 2 3 12
v 2 4 12
v -1 3 5
v -1 4 5
v 0 3 5
v 0 4 5
v 2 3 5
v 2 4 5
v 3 3 5
v 3 4 5
v -3 6 -2
v -3 7 -2
v -2 6 -2
v -2 7 -2
v -1 6 -2
v 0 6 -2
v 0 7 -2
v 0 8 -2
v 2 6 -2
v 2 7 -2
v 2 8 -2
v 3 6 -2
v 4 6 -2
v 4 7 -2
v 5 6 -2
v 5 7 -2
v -4 6 -5
v -4 7 -5
v -3 6 -5
v -3 7 -5
v -1 3 -5
v -1 4 -5
v -1 5 -5
v -1 6 -5
v 0 6 -5
v 0 7 -5
v 2 6 -5
v 2 7 -5
v 3 3 -5
v 3 4 -5
v 3 5 -5
v 3 6 -5
v 5 6 -5
v 5 7 -5
v 6 6 -5
v 6 7 -5
v -3 3 -6
v -3 4 -6
v -3 5 -6
v -3 6 -6
v -1 3 -6
v -1 4 -6
v -1 5 -6
v -1 6 -6
v 3 3 -6
v 3 4 -6
v 3 5 -6
v 3 6 -6
v 5 3 -6
v 5 4 -6
v 5 5 -6
v 5 6 -6
v -11 3 -8
v -11 7 -8
v -10 4 -8
v -10 5 -8
v -9 4 -8
v -9 5 -8
v -9 6 -8
v -5 4 -8
v -5 6 -8
v -4 6 -8
v -4 7 -8
v -3 3 -8
v -3 6 -8
v 5 3 -8
v 5 6 -8
v 6 6 -8
v 6 7 -8
v 7 4 -8
v 7 6 -8
v 11 4 -8
v 11 6 -8
v 13 3 -8
v 13 7 -8
v -9 4 -11
v -9 6 -11
v -5 4 -11
v -5 6 -11
v 7 4 -11
v 7 6 -11
v 11 4 -11
v 11 6 -11
v 0 3 14
v 2 3 14
v -1 3 13
v 0 3 13
v 2 3 13
v 3 3 13
v 0 3 12
v 2 3 12
v -1 3 11
v 0 3 11
v 2 3 11
v 3 3 11
v -1 3 9
v 0 3 9
v 2 3 9
v 3 3 9
v -2 3 8
v -1 3 8
v 3 3 8
v 4 3 8
v -3 3 7
v -2 3 7
v -1 3 7
v 0 3 7
v 2 3 7
v 3 3 7
v 4 3 7
v 5 3 7
v -3 3 6
v 0 3 6
v 2 3 6
v 5 3 6
v -3 3 5
v -1 3 5
v 0 3 5
v 2 3 5
v 3 3 5
v 5 3 5
v -3 3 3
v -1 3 3
v 3 3 3
v 5 3 3
v -5 3 2
v -3 3 2
v -1 3 2
v 3 3 2
v 5 3 2
v 7 3 2
v -6 3 -0
v -5 3 -0
v 7 3 -0
v 8 3 -0
v -11 3 -1
v -6 3 -1
v 8 3 -1
v 13 3 -1
v -1 3 -2
v 3 3 -2
v -1 3 -5
v 3 3 -5
v -3 3 -6
v -1 3 -6
v 3 3 -6
v 5 3 -6
v -11 3 -7
v -3 3 -7
v 5 3 -7
v 13 3 -7
v -11 3 -8
v -3 3 -8
v 5 3 -8
v 13 3 -8
v 0 4 15
v 2 4 15
v 0 4 14
v 2 4 14
v 0 4 12
v 2 4 12
v 0 4 11
v 2 4 11
v 0 4 9
v 2 4 9
v 0 4 7
v 2 4 7
v 0 4 6
v 2 4 6
v -1 4 5
v 0 4 5
v 2 4 5
v 3 4 5
v -1 4 3
v 3 4 3
v -9 4 2
v -7 4 2
v -1 4 2
v 3 4 2
v 9 4 2
v 11 4 2
v -9 4 -1
v -7 4 -1
v 9 4 -1
v 11 4 -1
v -1 4 -2
v 3 4 -2
v -9 4 -8
v -5 4 -8
v 7 4 -8
v 11 4 -8
v -9 4 -10
v -5 4 -10
v 7 4 -10
v 11 4 -10
v -9 4 -11
v -5 4 -11
v 7 4 -11
v 11 4 -11
v 0 5 15
v 2 5 15
v 0 5 14
v 2 5 14
v -9 5 2
v -7 5 2
v 9 5 2
v 11 5 2
v -9 5 -1
v -8 5 -1
v -7 5 -1
v 9 5 -1
v 10 5 -1
v 11 5 -1
v 0 6 14
v 2 6 14
v -1 6 13
v 0 6 13
v 2 6 13
v 3 6 13
v 0 6 12
v 2 6 12
v -1 6 11
v 0 6 11
v 2 6 11
v 3 6 11
v -1 6 9
v 0 6 9
v 2 6 9
v 3 6 9
v -2 6 8
v -1 6 8
v 3 6 8
v 4 6 8
v -3 6 7
v -2 6 7
v -1 6 7
v 0 6 7
v 2 6 7
v 3 6 7
v 4 6 7
v 5 6 7
v -3 6 6
v -1 6 6
v 3 6 6
v 5 6 6
v -3 6 5
v -1 6 5
v 3 6 5
v 5 6 5
v -3 6 3
v -1 6 3
v 3 6 3
v 5 6 3
v -5 6 2
v -3 6 2
v 5 6 2
v 7 6 2
v -2 6 1
v -1 6 1
v 3 6 1
v 4 6 1
v -5 6 -0
v -3 6 -0
v -2 6 -0
v 4 6 -0
v 5 6 -0
v 7 6 -0
v -11 6 -1
v -10 6 -1
v -8 6 -1
v -7 6 -1
v -6 6 -1
v 8 6 -1
v 9 6 -1
v 10 6 -1
v 12 6 -1
v 13 6 -1
v -3 6 -2
v -2 6 -2
v -1 6 -2
v 0 6 -2
v 2 6 -2
v 3 6 -2
v 4 6 -2
v 5 6 -2
v -4 6 -5
v -3 6 -5
v -1 6 -5
v 0 6 -5
v 2 6 -5
v 3 6 -5
v 5 6 -5
v 6 6 -5
v -11 6 -6
v -10 6 -6
v -8 6 -6
v -7 6 -6
v -6 6 -6
v -3 6 -6
v -1 6 -6
v 3 6 -6
v 5 6 -6
v 8 6 -6
v 9 6 -6
v 10 6 -6
v 12 6 -6
v 13 6 -6
v -4 6 -7
v -3 6 -7
v 5 6 -7
v 6 6 -7
v -9 6 -8
v -5 6 -8
v -4 6 -8
v -3 6 -8
v 5 6 -8
v 6 6 -8
v 7 6 -8
v 11 6 -8
v -9 6 -10
v -5 6 -10
v 7 6 -10
v 11 6 -10
v -9 6 -11
v -5 6 -11
v 7 6 -11
v 11 6 -11
v 0 7 12
v 2 7 12
v 0 7 11
v 2 7 11
v 0 7 9
v 2 7 9
v -1 7 7
v 0 7 7
v 2 7 7
v 3 7 7
v -1 7 6
v 3 7 6
v -1 7 5
v 3 7 5
v 0 7 4
v 2 7 4
v -2 7 1
v -1 7 1
v 0 7 1
v 2 7 1
v 3 7 1
v 4 7 1
v -6 7 -0
v -2 7 -0
v 4 7 -0
v 8 7 -0
v -3 7 -2
v -2 7 -2
v 0 7 -2
v 2 7 -2
v 4 7 -2
v 5 7 -2
v -4 7 -5
v -3 7 -5
v 0 7 -5
v 2 7 -5
v 5 7 -5
v 6 7 -5
v -11 7 -6
v -6 7 -6
v 8 7 -6
v 13 7 -6
v -11 7 -7
v -4 7 -7
v 6 7 -7
v 13 7 -7
v -11 7 -8
v -4 7 -8
v 6 7 -8
v 13 7 -8
v 0 8 4
v 2 8 4
v 0 8 -2
v 2 8 -2

# faces
f 4/4/1 2/4/1 1/4/1
f 5/4/1 2/4/1 4/4/1
f 6/4/1 2/4/1 5/4/1
f 7/7/1 3/7/1 2/7/1
f 7/4/1 2/4/1 6/4/1
f 8/7/1 3/7/1 7/7/1
f 14/6/1 10/6/1 9/6/1
f 15/6/1 10/6/1 14/6/1
f 16/8/1 12/8/1 11/8/1
f 17/8/1 12/8/1 16/8/1
f 18/2/1 13/2/1 12/2/1
f 18/8/1 12/8/1 17/8/1
f 19/2/1 13/2/1 18/2/1
f 22/4/1 21/4/1 20/4/1
f 23/4/1 22/4/1 20/4/1
f 25/4/1 23/4/1 20/4/1
f 25/4/1 24/4/1 23/4/1
f 26/4/1 24/4/1 25/4/1
f 29/4/1 28/4/1 27/4/1
f 30/4/1 28/4/1 29/4/1
f 36/4/1 32/4/1 31/4/1
f 37/7/1 33/7/1 32/7/1
f 37/4/1 32/4/1 36/4/1
f 38/4/1 34/4/1 33/4/1
f 38/7/1 33/7/1 37/7/1
f 39/9/1 35/9/1 34/9/1
f 39/4/1 34/4/1 38/4/1
f 40/9/1 35/9/1 39/9/1
f 43/4/1 42/4/1 41/4/1
f 44/4/1 42/4/1 43/4/1
f 47/7/1 46/7/1 45/7/1
f 48/7/1 46/7/1 47/7/1
f 53/4/1 50/4/1 49/4/1
f 54/7/1 51/7/1 50/7/1
f 54/4/1 50/4/1 53/4/1
f 55/9/1 52/9/1 51/9/1
f 55/7/1 51/7/1 54/7/1
f 56/9/1 52/9/1 55/9/1
f 62/4/1 58/4/1 57/4/1
f 63/7/1 59/7/1 58/7/1
f 63/4/1 58/4/1 62/4/1
f 64/4/1 61/4/1 60/4/1
f 64/7/1 59/7/1 63/7/1
f 64/4/1 60/4/1 59/4/1
f 65/4/1 61/4/1 64/4/1
f 69/4/1 67/4/1 66/4/1
f 70/4/1 69/4/1 68/4/1
f 71/4/1 67/4/1 69/4/1
f 71/4/1 69/4/1 70/4/1
f 72/4/1 67/4/1 71/4/1
f 73/4/1 67/4/1 72/4/1
f 80/4/1 75/4/1 74/4/1
f 81/7/1 76/7/1 75/7/1
f 81/4/1 75/4/1 80/4/1
f 82/4/1 77/4/1 76/4/1
f 82/7/1 76/7/1 81/7/1
f 83/4/1 77/4/1 82/4/1
f 86/4/1 79/4/1 78/4/1
f 87/4/1 79/4/1 86/4/1
f 88/5/1 85/5/1 84/5/1
f 88/5/1 86/5/1 85/5/1
f 89/5/1 86/5/1 88/5/1
f 96/4/1 91/4/1 90/4/1
f 97/7/1 92/7/1 91/7/1
f 97/4/1 91/4/1 96/4/1
f 98/9/1 93/9/1 92/9/1
f 98/7/1 92/7/1 97/7/1
f 99/4/1 94/4/1 93/4/1
f 99/9/1 93/9/1 98/9/1
f 100/7/1 95/7/1 94/7/1
f 100/4/1 94/4/1 99/4/1
f 101/7/1 95/7/1 100/7/1
f 108/4/1 103/4/1 102/4/1
f 109/9/1 104/9/1 103/9/1
f 109/4/1 103/4/1 108/4/1
f 110/4/1 105/4/1 104/4/1
f 110/9/1 104/9/1 109/9/1
f 111/4/1 105/4/1 110/4/1
f 112/4/1 107/4/1 106/4/1
f 113/4/1 107/4/1 112/4/1
f 114/7/1 113/7/1 112/7/1
f 115/7/1 113/7/1 114/7/1
f 116/4/1 115/4/1 114/4/1
f 117/4/1 115/4/1 116/4/1
f 121/4/1 119/4/1 118/4/1
f 122/4/1 119/4/1 121/4/1
f 125/4/1 119/4/1 122/4/1
f 126/7/1 120/7/1 119/7/1
f 126/4/1 119/4/1 125/4/1
f 127/7/1 120/7/1 126/7/1
f 128/4/1 124/4/1 123/4/1
f 129/4/1 124/4/1 128/4/1
f 133/4/1 131/4/1 130/4/1
f 134/7/1 132/7/1 131/7/1
f 134/4/1 131/4/1 133/4/1
f 135/7/1 132/7/1 134/7/1
f 139/8/1 137/8/1 136/8/1
f 140/2/1 138/2/1 137/2/1
f 140/8/1 137/8/1 139/8/1
f 141/2/1 138/2/1 140/2/1
f 144/6/1 143/6/1 142/6/1
f 145/6/1 143/6/1 144/6/1
f 146/6/2 147/6/2 148/6/2
f 148/6/2 147/6/2 149/6/2
f 150/8/2 151/8/2 153/8/2
f 151/2/2 152/2/2 154/2/2
f 153/8/2 151/8/2 154/8/2
f 154/2/2 152/2/2 155/2/2
f 156/4/2 157/4/2 159/4/2
f 157/7/2 158/7/2 160/7/2
f 159/4/2 157/4/2 160/4/2
f 160/7/2 158/7/2 161/7/2
f 162/4/2 163/4/2 165/4/2
f 165/4/2 163/4/2 166/4/2
f 166/4/2 163/4/2 169/4/2
f 163/7/2 164/7/2 170/7/2
f 169/4/2 163/4/2 170/4/2
f 170/7/2 164/7/2 171/7/2
f 167/4/2 168/4/2 172/4/2
f 172/4/2 168/4/2 173/4/2
f 174/4/2 175/4/2 180/4/2
f 175/9/2 176/9/2 181/9/2
f 180/4/2 175/4/2 181/4/2
f 176/4/2 177/4/2 182/4/2
f 181/9/2 176/9/2 182/9/2
f 182/4/2 177/4/2 183/4/2
f 178/4/2 179/4/2 184/4/2
f 184/4/2 179/4/2 185/4/2
f 184/7/2 185/7/2 186/7/2
f 186/7/2 185/7/2 187/7/2
f 186/4/2 187/4/2 188/4/2
f 188/4/2 187/4/2 189/4/2
f 190/4/2 191/4/2 196/4/2
f 191/7/2 192/7/2 197/7/2
f 196/4/2 191/4/2 197/4/2
f 192/9/2 193/9/2 198/9/2
f 197/7/2 192/7/2 198/7/2
f 193/4/2 194/4/2 199/4/2
f 198/9/2 193/9/2 199/9/2
f 194/7/2 195/7/2 200/7/2
f 199/4/2 194/4/2 200/4/2
f 200/7/2 195/7/2 201/7/2
f 202/4/2 203/4/2 205/4/2
f 204/4/2 205/4/2 206/4/2
f 205/4/2 203/4/2 207/4/2
f 206/4/2 205/4/2 207/4/2
f 207/4/2 203/4/2 208/4/2
f 208/4/2 203/4/2 209/4/2
f 210/4/2 211/4/2 216/4/2
f 211/7/2 212/7/2 217/7/2
f 216/4/2 211/4/2 217/4/2
f 212/4/2 213/4/2 218/4/2
f 217/7/2 212/7/2 218/7/2
f 218/4/2 213/4/2 219/4/2
f 214/4/2 215/4/2 222/4/2
f 222/4/2 215/4/2 223/4/2
f 220/5/2 221/5/2 224/5/2
f 221/5/2 222/5/2 224/5/2
f 224/5/2 222/5/2 225/5/2
f 226/4/2 227/4/2 230/4/2
f 227/7/2 228/7/2 231/7/2
f 230/4/2 227/4/2 231/4/2
f 228/9/2 229/9/2 232/9/2
f 231/7/2 228/7/2 232/7/2
f 232/9/2 229/9/2 233/9/2
f 234/4/2 235/4/2 239/4/2
f 235/7/2 236/7/2 240/7/2
f 239/4/2 235/4/2 240/4/2
f 237/4/2 238/4/2 241/4/2
f 240/7/2 236/7/2 241/7/2
f 236/4/2 237/4/2 241/4/2
f 241/4/2 238/4/2 242/4/2
f 243/4/2 244/4/2 245/4/2
f 245/4/2 244/4/2 246/4/2
f 247/7/2 248/7/2 249/7/2
f 249/7/2 248/7/2 250/7/2
f 251/4/2 252/4/2 256/4/2
f 252/7/2 253/7/2 257/7/2
f 256/4/2 252/4/2 257/4/2
f 253/4/2 254/4/2 258/4/2
f 257/7/2 253/7/2 258/7/2
f 254/9/2 255/9/2 259/9/2
f 258/4/2 254/4/2 259/4/2
f 259/9/2 255/9/2 260/9/2
f 261/4/2 262/4/2 263/4/2
f 263/4/2 262/4/2 264/4/2
f 265/4/2 266/4/2 267/4/2
f 265/4/2 267/4/2 268/4/2
f 265/4/2 268/4/2 270/4/2
f 268/4/2 269/4/2 270/4/2
f 270/4/2 269/4/2 271/4/2
f 272/6/2 273/6/2 277/6/2
f 277/6/2 273/6/2 278/6/2
f 274/8/2 275/8/2 279/8/2
f 275/2/2 276/2/2 280/2/2
f 279/8/2 275/8/2 280/8/2
f 280/2/2 276/2/2 281/2/2
f 282/4/2 283/4/2 285/4/2
f 285/4/2 283/4/2 286/4/2
f 286/4/2 283/4/2 287/4/2
f 283/7/2 284/7/2 288/7/2
f 287/4/2 283/4/2 288/4/2
f 288/7/2 284/7/2 289/7/2
f 292/4/3 291/4/3 290/4/3
f 293/4/3 291/4/3 292/4/3
f 298/4/3 295/4/3 294/4/3
f 299/4/3 295/4/3 298/4/3
f 300/4/3 297/4/3 296/4/3
f 301/4/3 297/4/3 300/4/3
f 304/4/3 303/4/3 302/4/3
f 305/4/3 303/4/3 304/4/3
f 308/4/3 307/4/3 306/4/3
f 309/4/3 307/4/3 308/4/3
f 312/4/3 311/4/3 310/4/3
f 313/4/3 311/4/3 312/4/3
f 316/4/3 315/4/3 314/4/3
f 317/4/3 315/4/3 316/4/3
f 320/4/3 319/4/3 318/4/3
f 321/4/3 319/4/3 320/4/3
f 324/4/3 323/4/3 322/4/3
f 325/4/3 323/4/3 324/4/3
f 328/4/3 327/4/3 326/4/3
f 329/4/3 327/4/3 328/4/3
f 332/4/3 331/4/3 330/4/3
f 333/4/3 331/4/3 332/4/3
f 336/4/3 335/4/3 334/4/3
f 337/4/3 335/4/3 336/4/3
f 340/5/3 339/5/3 338/5/3
f 341/5/3 339/5/3 340/5/3
f 344/6/3 343/6/3 342/6/3
f 345/6/3 343/6/3 344/6/3
f 348/4/3 347/4/3 346/4/3
f 349/4/3 347/4/3 348/4/3
f 352/4/3 351/4/3 350/4/3
f 353/4/3 351/4/3 352/4/3
f 356/6/3 355/6/3 354/6/3
f 357/6/3 355/6/3 356/6/3
f 360/7/3 359/7/3 358/7/3
f 361/7/3 359/7/3 360/7/3
f 364/7/3 363/7/3 362/7/3
f 365/7/3 363/7/3 364/7/3
f 368/4/3 367/4/3 366/4/3
f 369/4/3 367/4/3 368/4/3
f 370/4/3 367/4/3 369/4/3
f 371/4/3 367/4/3 370/4/3
f 372/4/3 367/4/3 371/4/3
f 375/4/3 374/4/3 373/4/3
f 377/4/3 374/4/3 375/4/3
f 378/4/3 377/4/3 376/4/3
f 379/4/3 374/4/3 377/4/3
f 379/4/3 377/4/3 378/4/3
f 382/4/3 381/4/3 380/4/3
f 383/4/3 381/4/3 382/4/3
f 384/4/3 382/4/3 380/4/3
f 385/7/3 383/7/3 382/7/3
f 385/4/3 382/4/3 384/4/3
f 386/7/3 383/7/3 385/7/3
f 387/7/3 383/7/3 386/7/3
f 388/4/3 384/4/3 380/4/3
f 389/4/3 387/4/3 386/4/3
f 390/4/3 387/4/3 389/4/3
f 391/4/3 388/4/3 380/4/3
f 391/4/3 389/4/3 388/4/3
f 392/7/3 390/7/3 389/7/3
f 392/4/3 389/4/3 391/4/3
f 393/7/3 390/7/3 392/7/3
f 397/4/3 395/4/3 394/4/3
f 398/7/3 396/7/3 395/7/3
f 398/4/3 395/4/3 397/4/3
f 399/7/3 396/7/3 398/7/3
f 400/4/3 399/4/3 398/4/3
f 401/4/3 399/4/3 400/4/3
f 402/4/3 397/4/3 394/4/3
f 403/7/3 401/7/3 400/7/3
f 404/7/3 401/7/3 403/7/3
f 404/4/3 403/4/3 402/4/3
f 405/7/3 401/7/3 404/7/3
f 406/4/3 402/4/3 394/4/3
f 406/4/3 404/4/3 402/4/3
f 406/4/3 405/4/3 404/4/3
f 407/4/3 405/4/3 406/4/3
f 410/9/3 409/9/3 408/9/3
f 411/9/3 409/9/3 410/9/3
f 414/4/3 413/4/3 412/4/3
f 415/4/3 413/4/3 414/4/3
f 416/4/3 413/4/3 415/4/3
f 417/4/3 413/4/3 416/4/3
f 418/4/3 413/4/3 417/4/3
f 421/4/3 420/4/3 419/4/3
f 422/4/3 420/4/3 421/4/3
f 423/4/3 420/4/3 422/4/3
f 424/4/3 420/4/3 423/4/3
f 425/4/3 420/4/3 424/4/3
f 426/4/4 427/4/4 428/4/4
f 428/4/4 427/4/4 429/4/4
f 430/7/4 431/7/4 432/7/4
f 432/7/4 431/7/4 433/7/4
f 434/7/4 435/7/4 436/7/4
f 436/7/4 435/7/4 437/7/4
f 438/4/4 439/4/4 440/4/4
f 440/4/4 439/4/4 441/4/4
f 440/7/4 441/7/4 442/7/4
f 442/7/4 441/7/4 443/7/4
f 443/7/4 441/7/4 444/7/4
f 444/5/4 445/5/4 447/5/4
f 447/5/4 445/5/4 448/5/4
f 446/7/4 447/7/4 449/7/4
f 449/7/4 447/7/4 450/7/4
f 450/7/4 447/7/4 451/7/4
f 450/4/4 451/4/4 452/4/4
f 452/4/4 451/4/4 453/4/4
f 454/4/4 455/4/4 456/4/4
f 456/4/4 455/4/4 457/4/4
f 458/9/4 459/9/4 462/9/4
f 460/9/4 461/9/4 462/9/4
f 459/9/4 460/9/4 462/9/4
f 458/9/4 462/9/4 464/9/4
f 462/4/4 463/4/4 464/4/4
f 464/4/4 463/4/4 465/4/4
f 458/9/4 464/9/4 466/9/4
f 466/9/4 464/9/4 467/9/4
f 467/9/4 464/9/4 468/9/4
f 468/9/4 464/9/4 469/9/4
f 470/4/4 471/4/4 472/4/4
f 472/4/4 471/4/4 473/4/4
f 474/4/4 475/4/4 478/4/4
f 475/7/4 476/7/4 479/7/4
f 478/4/4 475/4/4 479/4/4
f 476/4/4 477/4/4 480/4/4
f 479/7/4 476/7/4 480/7/4
f 480/4/4 477/4/4 481/4/4
f 482/4/4 483/4/4 486/4/4
f 483/7/4 484/7/4 487/7/4
f 486/4/4 483/4/4 487/4/4
f 484/4/4 485/4/4 488/4/4
f 487/7/4 484/7/4 488/7/4
f 488/4/4 485/4/4 489/4/4
f 490/7/4 491/7/4 492/7/4
f 492/7/4 491/7/4 493/7/4
f 490/7/4 492/7/4 494/7/4
f 492/4/4 493/4/4 494/4/4
f 493/7/4 491/7/4 495/7/4
f 494/4/4 493/4/4 495/4/4
f 495/7/4 491/7/4 496/7/4
f 490/7/4 494/7/4 497/7/4
f 496/7/4 491/7/4 498/7/4
f 498/7/4 491/7/4 499/7/4
f 497/7/4 498/7/4 499/7/4
f 499/7/4 491/7/4 500/7/4
f 490/7/4 497/7/4 501/7/4
f 497/7/4 499/7/4 501/7/4
f 501/7/4 499/7/4 502/7/4
f 503/7/4 504/7/4 505/7/4
f 503/7/4 505/7/4 507/7/4
f 505/7/4 506/7/4 507/7/4
f 507/7/4 506/7/4 508/7/4
f 503/7/4 507/7/4 509/7/4
f 508/7/4 506/7/4 510/7/4
f 503/7/4 509/7/4 511/7/4
f 509/7/4 510/7/4 511/7/4
f 510/7/4 506/7/4 512/7/4
f 511/7/4 510/7/4 512/7/4
f 513/2/4 514/2/4 515/2/4
f 515/2/4 514/2/4 516/2/4
f 517/2/4 518/2/4 519/2/4
f 519/2/4 518/2/4 520/2/4
f 524/4/5 522/4/5 521/4/5
f 525/4/5 522/4/5 524/4/5
f 527/4/5 524/4/5 523/4/5
f 527/4/5 526/4/5 525/4/5
f 527/4/5 525/4/5 524/4/5
f 528/4/5 526/4/5 527/4/5
f 529/4/5 527/4/5 523/4/5
f 530/4/5 527/4/5 529/4/5
f 531/4/5 526/4/5 528/4/5
f 532/4/5 526/4/5 531/4/5
f 533/7/5 530/7/5 529/7/5
f 534/7/5 530/7/5 533/7/5
f 535/7/5 532/7/5 531/7/5
f 536/7/5 532/7/5 535/7/5
f 538/9/5 534/9/5 533/9/5
f 539/9/5 536/9/5 535/9/5
f 542/4/5 538/4/5 537/4/5
f 543/9/5 534/9/5 538/9/5
f 543/4/5 538/4/5 542/4/5
f 544/9/5 534/9/5 543/9/5
f 545/9/5 539/9/5 535/9/5
f 546/4/5 540/4/5 539/4/5
f 546/9/5 539/9/5 545/9/5
f 547/4/5 540/4/5 546/4/5
f 549/4/5 544/4/5 543/4/5
f 549/4/5 542/4/5 541/4/5
f 549/4/5 543/4/5 542/4/5
f 550/4/5 544/4/5 549/4/5
f 551/4/5 548/4/5 547/4/5
f 551/4/5 547/4/5 546/4/5
f 551/4/5 546/4/5 545/4/5
f 552/4/5 548/4/5 551/4/5
f 553/7/5 550/7/5 549/7/5
f 554/7/5 550/7/5 553/7/5
f 555/7/5 550/7/5 554/7/5
f 556/7/5 552/7/5 551/7/5
f 557/7/5 552/7/5 556/7/5
f 558/7/5 552/7/5 557/7/5
f 559/4/5 554/4/5 553/4/5
f 560/4/5 554/4/5 559/4/5
f 561/4/5 558/4/5 557/4/5
f 562/4/5 558/4/5 561/4/5
f 564/9/5 560/9/5 559/9/5
f 565/9/5 560/9/5 564/9/5
f 566/9/5 562/9/5 561/9/5
f 567/9/5 562/9/5 566/9/5
f 570/4/5 564/4/5 563/4/5
f 570/4/5 565/4/5 564/4/5
f 571/4/5 567/4/5 566/4/5
f 571/4/5 568/4/5 567/4/5
f 574/4/5 570/4/5 569/4/5
f 575/4/5 572/4/5 571/4/5
f 577/4/5 574/4/5 573/4/5
f 577/4/5 565/4/5 570/4/5
f 577/4/5 570/4/5 574/4/5
f 578/4/5 576/4/5 575/4/5
f 578/4/5 575/4/5 571/4/5
f 578/4/5 571/4/5 566/4/5
f 579/4/5 577/4/5 573/4/5
f 579/9/5 578/9/5 577/9/5
f 580/4/5 576/4/5 578/4/5
f 580/9/5 578/9/5 579/9/5
f 581/4/5 579/4/5 573/4/5
f 582/4/5 579/4/5 581/4/5
f 583/4/5 576/4/5 580/4/5
f 584/4/5 576/4/5 583/4/5
f 585/4/5 581/4/5 573/4/5
f 586/4/5 581/4/5 585/4/5
f 587/4/5 576/4/5 584/4/5
f 588/4/5 576/4/5 587/4/5
f 589/7/5 586/7/5 585/7/5
f 590/7/5 586/7/5 589/7/5
f 591/7/5 588/7/5 587/7/5
f 592/7/5 588/7/5 591/7/5
f 595/4/5 594/4/5 593/4/5
f 596/4/5 594/4/5 595/4/5
f 599/4/5 598/4/5 597/4/5
f 600/4/5 598/4/5 599/4/5
f 601/7/5 600/7/5 599/7/5
f 602/7/5 600/7/5 601/7/5
f 603/9/5 602/9/5 601/9/5
f 604/9/5 602/9/5 603/9/5
f 605/4/5 604/4/5 603/4/5
f 606/4/5 604/4/5 605/4/5
f 608/7/5 606/7/5 605/7/5
f 609/7/5 606/7/5 608/7/5
f 611/4/5 609/4/5 608/4/5
f 611/4/5 610/4/5 609/4/5
f 611/4/5 608/4/5 607/4/5
f 612/4/5 610/4/5 611/4/5
f 615/9/5 612/9/5 611/9/5
f 616/9/5 612/9/5 615/9/5
f 619/6/5 614/6/5 613/6/5
f 620/6/5 614/6/5 619/6/5
f 621/6/5 618/6/5 617/6/5
f 622/6/5 618/6/5 621/6/5
f 623/4/5 616/4/5 615/4/5
f 624/4/5 616/4/5 623/4/5
f 629/8/5 626/8/5 625/8/5
f 630/8/5 626/8/5 629/8/5
f 631/8/5 628/8/5 627/8/5
f 632/8/5 628/8/5 631/8/5
f 633/2/5 630/2/5 629/2/5
f 634/2/5 630/2/5 633/2/5
f 635/2/5 632/2/5 631/2/5
f 636/2/5 632/2/5 635/2/5
f 637/4/6 638/4/6 639/4/6
f 639/4/6 638/4/6 640/4/6
f 641/6/6 642/6/6 645/6/6
f 645/6/6 642/6/6 646/6/6
f 646/6/6 642/6/6 647/6/6
f 643/6/6 644/6/6 648/6/6
f 648/6/6 644/6/6 649/6/6
f 649/6/6 644/6/6 650/6/6
f 651/4/6 652/4/6 654/4/6
f 654/4/6 652/4/6 655/4/6
f 653/4/6 654/4/6 657/4/6
f 655/4/6 656/4/6 657/4/6
f 654/4/6 655/4/6 657/4/6
f 657/4/6 656/4/6 658/4/6
f 653/4/6 657/4/6 659/4/6
f 659/4/6 657/4/6 660/4/6
f 658/4/6 656/4/6 661/4/6
f 661/4/6 656/4/6 662/4/6
f 659/7/6 660/7/6 663/7/6
f 663/7/6 660/7/6 664/7/6
f 661/7/6 662/7/6 665/7/6
f 665/7/6 662/7/6 666/7/6
f 663/9/6 664/9/6 668/9/6
f 665/9/6 666/9/6 669/9/6
f 667/4/6 668/4/6 672/4/6
f 668/9/6 664/9/6 673/9/6
f 672/4/6 668/4/6 673/4/6
f 673/9/6 664/9/6 674/9/6
f 665/9/6 669/9/6 675/9/6
f 669/4/6 670/4/6 676/4/6
f 675/9/6 669/9/6 676/9/6
f 676/4/6 670/4/6 677/4/6
f 671/4/6 672/4/6 679/4/6
f 672/4/6 673/4/6 679/4/6
f 679/4/6 673/4/6 680/4/6
f 677/4/6 678/4/6 681/4/6
f 676/4/6 677/4/6 681/4/6
f 681/4/6 678/4/6 682/4/6
f 679/7/6 680/7/6 683/7/6
f 683/7/6 680/7/6 684/7/6
f 681/7/6 682/7/6 685/7/6
f 685/7/6 682/7/6 686/7/6
f 683/4/6 684/4/6 687/4/6
f 687/4/6 684/4/6 688/4/6
f 685/4/6 686/4/6 689/4/6
f 689/4/6 686/4/6 690/4/6
f 687/9/6 688/9/6 692/9/6
f 689/9/6 690/9/6 693/9/6
f 692/9/6 688/9/6 695/9/6
f 695/9/6 688/9/6 696/9/6
f 689/9/6 693/9/6 697/9/6
f 697/9/6 693/9/6 698/9/6
f 691/4/6 692/4/6 699/4/6
f 692/9/6 695/9/6 700/9/6
f 699/4/6 692/4/6 700/4/6
f 700/9/6 695/9/6 701/9/6
f 698/9/6 693/9/6 702/9/6
f 693/4/6 694/4/6 703/4/6
f 702/9/6 693/9/6 703/9/6
f 703/4/6 694/4/6 704/4/6
f 715/4/6 716/4/6 724/4/6
f 716/4/6 717/4/6 724/4/6
f 717/9/6 718/9/6 725/9/6
f 724/4/6 717/4/6 725/4/6
f 725/9/6 718/9/6 726/9/6
f 719/9/6 720/9/6 727/9/6
f 721/4/6 722/4/6 728/4/6
f 727/9/6 720/9/6 728/9/6
f 720/4/6 721/4/6 728/4/6
f 728/4/6 722/4/6 729/4/6
f 705/4/6 706/4/6 731/4/6
f 706/7/6 707/7/6 732/7/6
f 731/4/6 706/4/6 732/4/6
f 707/4/6 708/4/6 733/4/6
f 732/7/6 707/7/6 733/7/6
f 708/7/6 709/7/6 734/7/6
f 733/4/6 708/4/6 734/4/6
f 734/7/6 709/7/6 735/7/6
f 724/4/6 725/4/6 736/4/6
f 723/4/6 724/4/6 736/4/6
f 736/4/6 725/4/6 737/4/6
f 729/4/6 730/4/6 738/4/6
f 728/4/6 729/4/6 738/4/6
f 738/4/6 730/4/6 739/4/6
f 710/7/6 711/7/6 740/7/6
f 711/4/6 712/4/6 741/4/6
f 740/7/6 711/7/6 741/7/6
f 712/7/6 713/7/6 742/7/6
f 741/4/6 712/4/6 742/4/6
f 713/4/6 714/4/6 743/4/6
f 742/7/6 713/7/6 743/7/6
f 743/4/6 714/4/6 744/4/6
f 723/4/6 736/4/6 745/4/6
f 745/4/6 736/4/6 746/4/6
f 739/4/6 730/4/6 747/4/6
f 747/4/6 730/4/6 748/4/6
f 745/7/6 746/7/6 751/7/6
f 751/7/6 746/7/6 752/7/6
f 747/7/6 748/7/6 753/7/6
f 753/7/6 748/7/6 754/7/6
f 749/8/6 750/8/6 757/8/6
f 757/8/6 750/8/6 758/8/6
f 755/8/6 756/8/6 759/8/6
f 759/8/6 756/8/6 760/8/6
f 757/2/6 758/2/6 761/2/6
f 761/2/6 758/2/6 762/2/6
f 759/2/6 760/2/6 763/2/6
f 763/2/6 760/2/6 764/2/6
f 765/4/6 766/4/6 767/4/6
f 767/4/6 766/4/6 768/4/6
f 767/7/6 768/7/6 769/7/6
f 769/7/6 768/7/6 770/7/6
f 769/4/6 770/4/6 772/4/6
f 772/4/6 770/4/6 773/4/6
f 772/4/6 773/4/6 775/4/6
f 773/4/6 774/4/6 775/4/6
f 771/4/6 772/4/6 775/4/6
f 775/4/6 774/4/6 776/4/6
f 775/7/6 776/7/6 777/7/6
f 777/7/6 776/7/6 778/7/6
f 777/4/6 778/4/6 779/4/6
f 779/4/6 778/4/6 780/4/6
f 777/4/6 779/4/6 782/4/6
f 782/4/6 779/4/6 783/4/6
f 780/4/6 778/4/6 784/4/6
f 784/4/6 778/4/6 785/4/6
f 782/7/6 783/7/6 788/7/6
f 781/7/6 782/7/6 788/7/6
f 784/7/6 785/7/6 789/7/6
f 785/7/6 786/7/6 789/7/6
f 787/4/6 788/4/6 791/4/6
f 788/7/6 783/7/6 792/7/6
f 791/4/6 788/4/6 792/4/6
f 792/7/6 783/7/6 793/7/6
f 784/7/6 789/7/6 794/7/6
f 789/4/6 790/4/6 795/4/6
f 794/7/6 789/7/6 795/7/6
f 795/4/6 790/4/6 796/4/6
f 787/4/6 791/4/6 797/4/6
f 797/4/6 791/4/6 798/4/6
f 793/4/6 794/4/6 799/4/6
f 799/4/6 794/4/6 800/4/6
f 796/4/6 790/4/6 801/4/6
f 801/4/6 790/4/6 802/4/6
f 787/4/6 797/4/6 804/4/6
f 802/4/6 790/4/6 805/4/6
f 803/4/6 804/4/6 807/4/6
f 804/4/6 797/4/6 808/4/6
f 807/4/6 804/4/6 808/4/6
f 805/4/6 806/4/6 809/4/6
f 802/4/6 805/4/6 809/4/6
f 809/4/6 806/4/6 810/4/6
f 807/7/6 808/7/6 811/7/6
f 811/7/6 808/7/6 812/7/6
f 809/7/6 810/7/6 813/7/6
f 813/7/6 810/7/6 814/7/6
f 815/5/6 816/5/6 817/5/6
f 817/5/6 816/5/6 818/5/6
